<svg width="24" height="24" viewBox="0 0 24 24" fill="none" xmlns="http://www.w3.org/2000/svg">
<g clip-path="url(#clip0_6007_14704)">
<path d="M11.5101 24.0098H12.5109C17.9517 24.0098 20.6613 24.0098 22.3413 22.3298C24.0117 20.6498 24.0117 17.9306 24.0117 12.509V11.489C24.0117 6.08897 24.0117 3.36977 22.3413 1.68977C20.6613 0.00976562 17.9421 0.00976562 12.5109 0.00976562H11.5101C6.06932 0.00976562 3.35972 0.00976562 1.67972 1.68977C0.0117188 3.36977 0.0117188 6.09137 0.0117188 11.5106V12.5306C0.0117188 17.9306 0.0117188 20.6498 1.69172 22.3298C3.37172 24.0098 6.09092 24.0098 11.5101 24.0098Z" fill="white"/>
<path d="M12.7827 17.2993C7.31308 17.2993 4.19308 13.5505 4.06348 7.31055H6.80428C6.89548 11.8897 8.91388 13.8313 10.5147 14.2297V7.31055H13.0947V11.2609C14.6739 11.0905 16.3347 9.29055 16.8939 7.31055H19.4739C19.0467 9.38655 17.7747 11.1913 15.9627 12.2905C17.9859 13.2961 19.4811 15.1201 20.0715 17.2993H17.2323C16.6971 15.3841 15.0651 13.9777 13.0923 13.7281V17.2993H12.7827Z" fill="#202022"/>
</g>
<defs>
<clipPath id="clip0_6007_14704">
<rect width="24" height="24" fill="white"/>
</clipPath>
</defs>
</svg>
